<?xml version="1.0" encoding="UTF-8"?>
<svg viewBox="0 0 768 768" xmlns="http://www.w3.org/2000/svg" xmlns:xlink="http://www.w3.org/1999/xlink">
 <defs>
  <clipPath id="f">
   <path d="m57.5.5h397a57,57 0 0,1 57,57v397a57,57 0 0,1 -57,57h-397a57,57 0 0,1 -57-57v-397a57,57 0 0,1 57-57"/>
  </clipPath>
  <clipPath id="g">
   <path d="m57,0h398a57,57 0 0,1 57,57v398a57,57 0 0,1 -57,57h-398a57,57 0 0,1 -57-57v-398a57,57 0 0,1 57-57"/>
  </clipPath>
  <filter id="e">
   <feGaussianBlur stdDeviation="5.12"/>
  </filter>
  <filter id="d">
   <feGaussianBlur stdDeviation="17.92"/>
  </filter>
  <linearGradient id="a">
   <stop stop-color="#dbe3db" offset="0"/>
   <stop stop-color="#dbe3db" stop-opacity="0" offset="1"/>
  </linearGradient>
  <linearGradient id="c" x1="342.19" x2="358.08" y1="705.76" y2="523.41" gradientTransform="matrix(1.1571 0 0 1.3167 -91.204 -253.99)" gradientUnits="userSpaceOnUse" xlink:href="#a"/>
  <linearGradient id="b" x1="405.26" x2="405.75" y1="118.06" y2="360.92" gradientTransform="matrix(.95303 0 0 .86647 11.575 -4.5016)" gradientUnits="userSpaceOnUse" xlink:href="#a"/>
 </defs>
&gt;
 <g transform="translate(90,90)">
  <path d="m95,56h398a57,57 0 0,1 57,57v398a57,57 0 0,1 -57,57h-398a57,57 0 0,1 -57-57v-398a57,57 0 0,1 57-57" filter="url(#d)" stroke="#a8a8a8" stroke-width="5"/>
 </g>
 <g transform="translate(128,128)" clip-path="url(#f)">
  <path d="m57,0h398a57,57 0 0,1 57,57v398a57,57 0 0,1 -57,57h-398a57,57 0 0,1 -57-57v-398a57,57 0 0,1 57-57" fill="#00f"/>
  <g transform="matrix(.48166 0 0 .72249 0 -2.6953e-6)" fill-rule="evenodd">
   <path d="m0 0h1063v708.66h-1063z" fill="#ffe800"/>
   <path d="m0 354.33h1063v354.33h-1063z" fill="#00148e"/>
   <path d="m0 531.5h1063v177.16h-1063z" fill="#da0010"/>
  </g>
 </g>
 <g transform="translate(0,38)">
  <path d="m214.21 111.21c-45.245 0.18809-68.716 7.7308-64.094 83.553l2.8252 46.345c47.474 5.5124 56.664 18.445 104.36 21.914 68.073 4.9513 67.937 5.4209 130.56-14.384s5.8248-65.247 207.32-57.82c4.6033 0.16968 17.314-3.0527 27.462-12.15 5.5817-46.524-2.7842-69.143-66.934-68.876z" fill="url(#b)"/>
  <path d="m531.03 495.17c-31.605 19.022-27.601 31.26-37.913 32.573-94.704 12.053-145.98-0.72701-165.8-12.061-59.588-34.078-68.468-13.014-100.22-16.574-20.115-2.2551-59.245 12.984-73.388 44.344 3.4722 27.608 18.111 32.098 44.281 31.986l356.06-1.5268c69.692-0.29885 56.335-8.4926 65.543-56.039-14.772-21.671-13.157 9.109-44.224-30.717z" fill="url(#c)"/>
  <path transform="translate(128,90)" d="m57,0h398a57,57 0 0,1 57,57v398a57,57 0 0,1 -57,57h-398a57,57 0 0,1 -57-57v-398a57,57 0 0,1 57-57" clip-path="url(#g)" fill="none" filter="url(#e)" stroke="#000" stroke-width="20"/>
 </g>
</svg>
