<?xml version="1.0" encoding="UTF-8"?>
<!DOCTYPE svg PUBLIC "-//W3C//DTD SVG 1.1//EN" "http://www.w3.org/Graphics/SVG/1.1/DTD/svg11.dtd">
<!-- Creator: CorelDRAW SE -->
<svg xmlns="http://www.w3.org/2000/svg" xml:space="preserve" width="210mm" height="297mm" version="1.1" style="shape-rendering:geometricPrecision; text-rendering:geometricPrecision; image-rendering:optimizeQuality; fill-rule:evenodd; clip-rule:evenodd"
viewBox="0 0 21000 29700"
 xmlns:xlink="http://www.w3.org/1999/xlink">
 <defs>
  <style type="text/css">
   <![CDATA[
    .fil3 {fill:#71625B}
    .fil1 {fill:#003087;fill-rule:nonzero}
    .fil2 {fill:#C8102E;fill-rule:nonzero}
    .fil0 {fill:#FFCD00;fill-rule:nonzero}
   ]]>
  </style>
 </defs>
 <g id="Warstwa_x0020_1">
  <metadata id="CorelCorpID_0Corel-Layer"/>
  <g id="_853732632">
   <g>
    <path class="fil0" d="M8739.25 7016.83c2164.09,-178.13 3914.21,592.08 5344.94,2224.88 1403.52,1601.74 3215.24,2323.41 5347.07,2225.77 -494.86,1188.84 -989.73,2377.68 -1484.22,3565.62 -494.11,1187.02 -988.98,2375.87 -1483.09,3562.89 -2132.21,98.55 -3943.77,-624.94 -5347.08,-2225.77 -1431.36,-1632.84 -3180.85,-2403 -5344.93,-2224.88 494.11,-1187.03 988.98,-2375.87 1483.09,-3562.89 494.49,-1187.94 989.36,-2376.79 1484.22,-3565.62z"/>
    <path class="fil1" d="M7255.03 10582.45c2164.08,-178.13 3913.91,591.75 5344.93,2224.88 1403.24,1601.43 3215.24,2323.41 5347.08,2225.77 -247.25,593.97 -494.49,1187.94 -741.74,1781.9 -247.24,593.97 -494.48,1187.93 -741.35,1780.99 -2132.21,98.55 -3943.77,-624.94 -5347.08,-2225.77 -1431.36,-1632.84 -3180.85,-2403 -5344.93,-2224.88 246.87,-593.06 494.11,-1187.03 741.35,-1780.99 247.25,-593.97 494.49,-1187.94 741.74,-1781.9z"/>
    <path class="fil2" d="M6513.29 12364.35c2164.08,-178.13 3913.91,591.75 5344.94,2224.88 1403.25,1601.43 3214.86,2324.32 5347.07,2225.77 -247.24,593.97 -494.48,1187.93 -741.35,1780.99 -2132.21,98.55 -3943.77,-624.94 -5347.08,-2225.77 -1431.36,-1632.84 -3180.85,-2403 -5344.93,-2224.88 246.87,-593.06 494.11,-1187.03 741.35,-1780.99z"/>
   </g>
   <path id="_156954400" class="fil3" d="M1882.14 23486.87l-327.66 -136.48 6879.38 -16516.73c-21.92,-52.09 -24.24,-110.67 -1.78,-164.61 15.97,-38.33 42.43,-69.39 75.18,-91.76 1.83,-17.2 6.08,-34.35 13.01,-50.96 13.92,-33.43 36.8,-60.65 65.14,-80.47 2.02,-11.32 5.28,-22.56 9.86,-33.55 15.88,-38.16 45.01,-67.15 80.71,-84.67 1.55,-10.24 4.32,-20.47 8.45,-30.4 29.69,-71.2 116.73,-102.68 194.43,-70.34 77.71,32.38 116.66,116.36 87.01,187.56 -4.13,9.92 -9.36,19.11 -15.54,27.42 12.7,37.7 12.57,78.78 -3.34,116.96 -4.56,10.97 -10.24,21.2 -16.83,30.59 5.89,34.09 2.68,69.5 -11.26,102.93 -6.92,16.62 -16.09,31.71 -27,45.12 7.2,39.03 3.8,79.68 -12.16,118.01 -22.48,53.95 -65.72,93.58 -118.19,114.71l-6879.41 16516.67z"/>
  </g>
 </g>
</svg>
